# xmcd CD database file
#
# Track frame offsets:
#	150
#	19915
#	36019
#	49288
#	62222
#	77978
#	92454
#	104150
#	114877
#	131340
#	143001
#	160699
#	173757
#	191935
#	203807
#
# Disc length: 2926 seconds
#
# Revision: 0
# Processed by: cddbd v1.5.1PL0 Copyright (c) Steve Scherf et al.
# Submitted via: CDex 1.51
#
DISCID=cc0b6c0f
DTITLE=Kadoré - Cadillac
DYEAR=2004
DGENRE=Jazz
TTITLE0=Cadillac
TTITLE1=Swing 85
TTITLE2=Coquette
TTITLE3=In gradina lui lon
TTITLE4=Lady be good
TTITLE5=September song
TTITLE6=La Varenne
TTITLE7=Japanese Sandman
TTITLE8=Limehouse Blues
TTITLE9=Anouman
TTITLE10=Bei mir mist du schön
TTITLE11=Well you needn't
TTITLE12=Brazil
TTITLE13=Cantaloup Island
TTITLE14=Django's Tiger
EXTD=YEAR: 2004
EXTT0=
EXTT1=
EXTT2=
EXTT3=
EXTT4=
EXTT5=
EXTT6=
EXTT7=
EXTT8=
EXTT9=
EXTT10=
EXTT11=
EXTT12=
EXTT13=
EXTT14=
PLAYORDER=
